<svg height="3182" width="720" xmlns="http://www.w3.org/2000/svg">
<rect height="3182" fill="#555" width="720"></rect>
<text fill="#7f7" font-family="Courier New" font-size="12" xml:space="preserve">
<tspan x="10" y="26">12 megabytes installed</tspan>
<tspan x="10" y="42"></tspan>
<tspan x="10" y="58">node_modules</tspan>
<tspan x="10" y="74">└─┬ gulp-jade-inheritance@0.5.5 </tspan>
<tspan x="10" y="90">  ├─┬ event-stream@3.3.4 </tspan>
<tspan x="10" y="106">  │ ├── duplexer@0.1.1 </tspan>
<tspan x="10" y="122">  │ ├── from@0.1.7 </tspan>
<tspan x="10" y="138">  │ ├── map-stream@0.1.0 </tspan>
<tspan x="10" y="154">  │ ├── pause-stream@0.0.11 </tspan>
<tspan x="10" y="170">  │ ├── split@0.3.3 </tspan>
<tspan x="10" y="186">  │ ├── stream-combiner@0.0.4 </tspan>
<tspan x="10" y="202">  │ └── through@2.3.8 </tspan>
<tspan x="10" y="218">  ├─┬ gulp-util@3.0.8 </tspan>
<tspan x="10" y="234">  │ ├── array-differ@1.0.0 </tspan>
<tspan x="10" y="250">  │ ├── array-uniq@1.0.3 </tspan>
<tspan x="10" y="266">  │ ├── beeper@1.1.1 </tspan>
<tspan x="10" y="282">  │ ├─┬ chalk@1.1.3 </tspan>
<tspan x="10" y="298">  │ │ ├── ansi-styles@2.2.1 </tspan>
<tspan x="10" y="314">  │ │ ├── escape-string-regexp@1.0.5 </tspan>
<tspan x="10" y="330">  │ │ ├─┬ has-ansi@2.0.0 </tspan>
<tspan x="10" y="346">  │ │ │ └── ansi-regex@2.1.1 </tspan>
<tspan x="10" y="362">  │ │ ├── strip-ansi@3.0.1 </tspan>
<tspan x="10" y="378">  │ │ └── supports-color@2.0.0 </tspan>
<tspan x="10" y="394">  │ ├── dateformat@2.0.0 </tspan>
<tspan x="10" y="410">  │ ├─┬ fancy-log@1.3.0 </tspan>
<tspan x="10" y="426">  │ │ └── time-stamp@1.0.1 </tspan>
<tspan x="10" y="442">  │ ├─┬ gulplog@1.0.0 </tspan>
<tspan x="10" y="458">  │ │ └── glogg@1.0.0 </tspan>
<tspan x="10" y="474">  │ ├─┬ has-gulplog@0.1.0 </tspan>
<tspan x="10" y="490">  │ │ └── sparkles@1.0.0 </tspan>
<tspan x="10" y="506">  │ ├── lodash._reescape@3.0.0 </tspan>
<tspan x="10" y="522">  │ ├── lodash._reevaluate@3.0.0 </tspan>
<tspan x="10" y="538">  │ ├── lodash._reinterpolate@3.0.0 </tspan>
<tspan x="10" y="554">  │ ├─┬ lodash.template@3.6.2 </tspan>
<tspan x="10" y="570">  │ │ ├── lodash._basecopy@3.0.1 </tspan>
<tspan x="10" y="586">  │ │ ├── lodash._basetostring@3.0.1 </tspan>
<tspan x="10" y="602">  │ │ ├── lodash._basevalues@3.0.0 </tspan>
<tspan x="10" y="618">  │ │ ├── lodash._isiterateecall@3.0.9 </tspan>
<tspan x="10" y="634">  │ │ ├─┬ lodash.escape@3.2.0 </tspan>
<tspan x="10" y="650">  │ │ │ └── lodash._root@3.0.1 </tspan>
<tspan x="10" y="666">  │ │ ├─┬ lodash.keys@3.1.2 </tspan>
<tspan x="10" y="682">  │ │ │ ├── lodash._getnative@3.9.1 </tspan>
<tspan x="10" y="698">  │ │ │ ├── lodash.isarguments@3.1.0 </tspan>
<tspan x="10" y="714">  │ │ │ └── lodash.isarray@3.0.4 </tspan>
<tspan x="10" y="730">  │ │ ├── lodash.restparam@3.6.1 </tspan>
<tspan x="10" y="746">  │ │ └── lodash.templatesettings@3.1.1 </tspan>
<tspan x="10" y="762">  │ ├── minimist@1.2.0 </tspan>
<tspan x="10" y="778">  │ ├─┬ multipipe@0.1.2 </tspan>
<tspan x="10" y="794">  │ │ └─┬ duplexer2@0.0.2 </tspan>
<tspan x="10" y="810">  │ │   └─┬ readable-stream@1.1.14 </tspan>
<tspan x="10" y="826">  │ │     ├── isarray@0.0.1 </tspan>
<tspan x="10" y="842">  │ │     └── string_decoder@0.10.31 </tspan>
<tspan x="10" y="858">  │ ├── object-assign@3.0.0 </tspan>
<tspan x="10" y="874">  │ ├── replace-ext@0.0.1 </tspan>
<tspan x="10" y="890">  │ └─┬ vinyl@0.5.3 </tspan>
<tspan x="10" y="906">  │   ├── clone@1.0.2 </tspan>
<tspan x="10" y="922">  │   └── clone-stats@0.0.1 </tspan>
<tspan x="10" y="938">  ├─┬ jade-inheritance@0.2.1 </tspan>
<tspan x="10" y="954">  │ ├── colors@0.6.2 </tspan>
<tspan x="10" y="970">  │ ├─┬ commander@1.2.0 </tspan>
<tspan x="10" y="986">  │ │ └── keypress@0.1.0 </tspan>
<tspan x="10" y="1002">  │ ├─┬ glob@3.2.6 </tspan>
<tspan x="10" y="1018">  │ │ ├── inherits@2.0.3 </tspan>
<tspan x="10" y="1034">  │ │ └─┬ minimatch@0.2.14 </tspan>
<tspan x="10" y="1050">  │ │   ├── lru-cache@2.7.3 </tspan>
<tspan x="10" y="1066">  │ │   └── sigmund@1.0.1 </tspan>
<tspan x="10" y="1082">  │ └─┬ jade@1.9.2 </tspan>
<tspan x="10" y="1098">  │   ├── character-parser@1.2.1 </tspan>
<tspan x="10" y="1114">  │   ├── commander@2.6.0 </tspan>
<tspan x="10" y="1130">  │   ├─┬ constantinople@3.0.2 </tspan>
<tspan x="10" y="1146">  │   │ └── acorn@2.7.0 </tspan>
<tspan x="10" y="1162">  │   ├─┬ transformers@2.1.0 </tspan>
<tspan x="10" y="1178">  │   │ ├─┬ css@1.0.8 </tspan>
<tspan x="10" y="1194">  │   │ │ ├── css-parse@1.0.4 </tspan>
<tspan x="10" y="1210">  │   │ │ └── css-stringify@1.0.5 </tspan>
<tspan x="10" y="1226">  │   │ ├─┬ promise@2.0.0 </tspan>
<tspan x="10" y="1242">  │   │ │ └── is-promise@1.0.1 </tspan>
<tspan x="10" y="1258">  │   │ └─┬ uglify-js@2.2.5 </tspan>
<tspan x="10" y="1274">  │   │   ├─┬ optimist@0.3.7 </tspan>
<tspan x="10" y="1290">  │   │   │ └── wordwrap@0.0.3 </tspan>
<tspan x="10" y="1306">  │   │   └─┬ source-map@0.1.43 </tspan>
<tspan x="10" y="1322">  │   │     └── amdefine@1.0.1 </tspan>
<tspan x="10" y="1338">  │   ├── void-elements@2.0.1 </tspan>
<tspan x="10" y="1354">  │   └─┬ with@4.0.3 </tspan>
<tspan x="10" y="1370">  │     ├── acorn@1.2.2 </tspan>
<tspan x="10" y="1386">  │     └── acorn-globals@1.0.9 </tspan>
<tspan x="10" y="1402">  ├── lodash@3.10.1 </tspan>
<tspan x="10" y="1418">  ├─┬ through2@2.0.3 </tspan>
<tspan x="10" y="1434">  │ ├─┬ readable-stream@2.2.9 </tspan>
<tspan x="10" y="1450">  │ │ ├── buffer-shims@1.0.0 </tspan>
<tspan x="10" y="1466">  │ │ ├── core-util-is@1.0.2 </tspan>
<tspan x="10" y="1482">  │ │ ├── isarray@1.0.0 </tspan>
<tspan x="10" y="1498">  │ │ ├── process-nextick-args@1.0.7 </tspan>
<tspan x="10" y="1514">  │ │ ├── string_decoder@1.0.0 </tspan>
<tspan x="10" y="1530">  │ │ └── util-deprecate@1.0.2 </tspan>
<tspan x="10" y="1546">  │ └── xtend@4.0.1 </tspan>
<tspan x="10" y="1562">  └─┬ vinyl-fs@2.4.4 </tspan>
<tspan x="10" y="1578">    ├─┬ duplexify@3.5.0 </tspan>
<tspan x="10" y="1594">    │ ├─┬ end-of-stream@1.0.0 </tspan>
<tspan x="10" y="1610">    │ │ └─┬ once@1.3.3 </tspan>
<tspan x="10" y="1626">    │ │   └── wrappy@1.0.2 </tspan>
<tspan x="10" y="1642">    │ ├─┬ readable-stream@2.2.9 </tspan>
<tspan x="10" y="1658">    │ │ ├── isarray@1.0.0 </tspan>
<tspan x="10" y="1674">    │ │ └── string_decoder@1.0.0 </tspan>
<tspan x="10" y="1690">    │ └── stream-shift@1.0.0 </tspan>
<tspan x="10" y="1706">    ├─┬ glob-stream@5.3.5 </tspan>
<tspan x="10" y="1722">    │ ├── extend@3.0.0 </tspan>
<tspan x="10" y="1738">    │ ├─┬ glob@5.0.15 </tspan>
<tspan x="10" y="1754">    │ │ ├── inflight@1.0.6 </tspan>
<tspan x="10" y="1770">    │ │ ├─┬ minimatch@3.0.3 </tspan>
<tspan x="10" y="1786">    │ │ │ └─┬ brace-expansion@1.1.7 </tspan>
<tspan x="10" y="1802">    │ │ │   ├── balanced-match@0.4.2 </tspan>
<tspan x="10" y="1818">    │ │ │   └── concat-map@0.0.1 </tspan>
<tspan x="10" y="1834">    │ │ └── path-is-absolute@1.0.1 </tspan>
<tspan x="10" y="1850">    │ ├─┬ glob-parent@3.1.0 </tspan>
<tspan x="10" y="1866">    │ │ ├─┬ is-glob@3.1.0 </tspan>
<tspan x="10" y="1882">    │ │ │ └── is-extglob@2.1.1 </tspan>
<tspan x="10" y="1898">    │ │ └── path-dirname@1.0.2 </tspan>
<tspan x="10" y="1914">    │ ├─┬ micromatch@2.3.11 </tspan>
<tspan x="10" y="1930">    │ │ ├─┬ arr-diff@2.0.0 </tspan>
<tspan x="10" y="1946">    │ │ │ └── arr-flatten@1.0.3 </tspan>
<tspan x="10" y="1962">    │ │ ├── array-unique@0.2.1 </tspan>
<tspan x="10" y="1978">    │ │ ├─┬ braces@1.8.5 </tspan>
<tspan x="10" y="1994">    │ │ │ ├─┬ expand-range@1.8.2 </tspan>
<tspan x="10" y="2010">    │ │ │ │ └─┬ fill-range@2.2.3 </tspan>
<tspan x="10" y="2026">    │ │ │ │   ├── is-number@2.1.0 </tspan>
<tspan x="10" y="2042">    │ │ │ │   ├─┬ isobject@2.1.0 </tspan>
<tspan x="10" y="2058">    │ │ │ │   │ └── isarray@1.0.0 </tspan>
<tspan x="10" y="2074">    │ │ │ │   ├── randomatic@1.1.6 </tspan>
<tspan x="10" y="2090">    │ │ │ │   └── repeat-string@1.6.1 </tspan>
<tspan x="10" y="2106">    │ │ │ ├── preserve@0.2.0 </tspan>
<tspan x="10" y="2122">    │ │ │ └── repeat-element@1.1.2 </tspan>
<tspan x="10" y="2138">    │ │ ├─┬ expand-brackets@0.1.5 </tspan>
<tspan x="10" y="2154">    │ │ │ └── is-posix-bracket@0.1.1 </tspan>
<tspan x="10" y="2170">    │ │ ├─┬ extglob@0.3.2 </tspan>
<tspan x="10" y="2186">    │ │ │ └── is-extglob@1.0.0 </tspan>
<tspan x="10" y="2202">    │ │ ├── filename-regex@2.0.0 </tspan>
<tspan x="10" y="2218">    │ │ ├── is-extglob@1.0.0 </tspan>
<tspan x="10" y="2234">    │ │ ├── is-glob@2.0.1 </tspan>
<tspan x="10" y="2250">    │ │ ├─┬ kind-of@3.1.0 </tspan>
<tspan x="10" y="2266">    │ │ │ └── is-buffer@1.1.5 </tspan>
<tspan x="10" y="2282">    │ │ ├─┬ normalize-path@2.1.1 </tspan>
<tspan x="10" y="2298">    │ │ │ └── remove-trailing-separator@1.0.1 </tspan>
<tspan x="10" y="2314">    │ │ ├─┬ object.omit@2.0.1 </tspan>
<tspan x="10" y="2330">    │ │ │ ├─┬ for-own@0.1.5 </tspan>
<tspan x="10" y="2346">    │ │ │ │ └── for-in@1.0.2 </tspan>
<tspan x="10" y="2362">    │ │ │ └── is-extendable@0.1.1 </tspan>
<tspan x="10" y="2378">    │ │ ├─┬ parse-glob@3.0.4 </tspan>
<tspan x="10" y="2394">    │ │ │ ├─┬ glob-base@0.3.0 </tspan>
<tspan x="10" y="2410">    │ │ │ │ ├── glob-parent@2.0.0 </tspan>
<tspan x="10" y="2426">    │ │ │ │ └─┬ is-glob@2.0.1 </tspan>
<tspan x="10" y="2442">    │ │ │ │   └── is-extglob@1.0.0 </tspan>
<tspan x="10" y="2458">    │ │ │ ├── is-dotfile@1.0.2 </tspan>
<tspan x="10" y="2474">    │ │ │ ├── is-extglob@1.0.0 </tspan>
<tspan x="10" y="2490">    │ │ │ └── is-glob@2.0.1 </tspan>
<tspan x="10" y="2506">    │ │ └─┬ regex-cache@0.4.3 </tspan>
<tspan x="10" y="2522">    │ │   ├── is-equal-shallow@0.1.3 </tspan>
<tspan x="10" y="2538">    │ │   └── is-primitive@2.0.0 </tspan>
<tspan x="10" y="2554">    │ ├─┬ ordered-read-streams@0.3.0 </tspan>
<tspan x="10" y="2570">    │ │ ├── is-stream@1.1.0 </tspan>
<tspan x="10" y="2586">    │ │ └─┬ readable-stream@2.2.9 </tspan>
<tspan x="10" y="2602">    │ │   ├── isarray@1.0.0 </tspan>
<tspan x="10" y="2618">    │ │   └── string_decoder@1.0.0 </tspan>
<tspan x="10" y="2634">    │ ├─┬ through2@0.6.5 </tspan>
<tspan x="10" y="2650">    │ │ └── readable-stream@1.0.34 </tspan>
<tspan x="10" y="2666">    │ ├─┬ to-absolute-glob@0.1.1 </tspan>
<tspan x="10" y="2682">    │ │ └── extend-shallow@2.0.1 </tspan>
<tspan x="10" y="2698">    │ └─┬ unique-stream@2.2.1 </tspan>
<tspan x="10" y="2714">    │   └─┬ json-stable-stringify@1.0.1 </tspan>
<tspan x="10" y="2730">    │     └── jsonify@0.0.0 </tspan>
<tspan x="10" y="2746">    ├── graceful-fs@4.1.11 </tspan>
<tspan x="10" y="2762">    ├─┬ gulp-sourcemaps@1.6.0 </tspan>
<tspan x="10" y="2778">    │ ├── convert-source-map@1.5.0 </tspan>
<tspan x="10" y="2794">    │ └── vinyl@1.2.0 </tspan>
<tspan x="10" y="2810">    ├── is-valid-glob@0.3.0 </tspan>
<tspan x="10" y="2826">    ├─┬ lazystream@1.0.0 </tspan>
<tspan x="10" y="2842">    │ └─┬ readable-stream@2.2.9 </tspan>
<tspan x="10" y="2858">    │   ├── isarray@1.0.0 </tspan>
<tspan x="10" y="2874">    │   └── string_decoder@1.0.0 </tspan>
<tspan x="10" y="2890">    ├── lodash.isequal@4.5.0 </tspan>
<tspan x="10" y="2906">    ├─┬ merge-stream@1.0.1 </tspan>
<tspan x="10" y="2922">    │ └─┬ readable-stream@2.2.9 </tspan>
<tspan x="10" y="2938">    │   ├── isarray@1.0.0 </tspan>
<tspan x="10" y="2954">    │   └── string_decoder@1.0.0 </tspan>
<tspan x="10" y="2970">    ├─┬ mkdirp@0.5.1 </tspan>
<tspan x="10" y="2986">    │ └── minimist@0.0.8 </tspan>
<tspan x="10" y="3002">    ├── object-assign@4.1.1 </tspan>
<tspan x="10" y="3018">    ├─┬ readable-stream@2.2.9 </tspan>
<tspan x="10" y="3034">    │ ├── isarray@1.0.0 </tspan>
<tspan x="10" y="3050">    │ └── string_decoder@1.0.0 </tspan>
<tspan x="10" y="3066">    ├─┬ strip-bom@2.0.0 </tspan>
<tspan x="10" y="3082">    │ └── is-utf8@0.2.1 </tspan>
<tspan x="10" y="3098">    ├─┬ strip-bom-stream@1.0.0 </tspan>
<tspan x="10" y="3114">    │ └── first-chunk-stream@1.0.0 </tspan>
<tspan x="10" y="3130">    ├── through2-filter@2.0.0 </tspan>
<tspan x="10" y="3146">    ├── vali-date@1.0.0 </tspan>
<tspan x="10" y="3162">    └── vinyl@1.2.0</tspan>
</text>
</svg>
